# xmcd
#
# Track frame offsets:
#	150
#	15900
#	34500
#	49725
#	64650
#	75525
#	92475
#	111300
#	127875
#	146850
#	165150
#	181650
#	196575
#	212775
#
# Disc length: 3066 seconds
#
# Revision: 3
# Processed by: cddbd v1.4PL0 Copyright (c) Steve Scherf et al.
# Submitted via: EasyCDDAExtractor 4.6.9.1
#
DISCID=a50bf80e
DTITLE=Σφακιανάκης Νότης - 5ο Βήμα
DYEAR=1996
DGENRE=Λαϊκό
TTITLE0=Δεν σε χρειάζομαι
TTITLE1=Μια ματιά σου μόνο φτάνει
TTITLE2=Πέρνα κι εσύ
TTITLE3=Δεν θα πας πουθενά
TTITLE4=Νύχτες αλήτισσες
TTITLE5=Σώμα μου
TTITLE6=Βήμα μην κάνεις βήμα
TTITLE7=Μεσόγειος
TTITLE8=Μόνος θα πονώ, θα πίνω
TTITLE9=Νταβατζής
TTITLE10=Ο Στράτος
TTITLE11=Με τα μάτια μιλάμε
TTITLE12=Όλος ο κόσμος είσαι
TTITLE13=Όλα τα είδα
EXTD=
EXTT0=
EXTT1=
EXTT2=
EXTT3=
EXTT4=
EXTT5=
EXTT6=
EXTT7=
EXTT8=
EXTT9=
EXTT10=
EXTT11=
EXTT12=
EXTT13=
PLAYORDER=
